<mxfile host="65bd71144e">
    <diagram id="YWlZx64Z_VDlq_uHs3cu" name="第 1 页">
        <mxGraphModel dx="1518" dy="410" grid="1" gridSize="10" guides="1" tooltips="1" connect="1" arrows="1" fold="1" page="1" pageScale="1" pageWidth="827" pageHeight="1169" math="0" shadow="0">
            <root>
                <mxCell id="0"/>
                <mxCell id="1" parent="0"/>
                <mxCell id="19" value="MySQL 数据类型/列类型" style="ellipse;fontFamily=Verdana;fontStyle=1" parent="1" vertex="1">
                    <mxGeometry x="-50" y="833.85" width="160" height="81.3" as="geometry"/>
                </mxCell>
                <mxCell id="80" style="edgeStyle=orthogonalEdgeStyle;html=1;exitX=1;exitY=0.5;exitDx=0;exitDy=0;entryX=0;entryY=0.5;entryDx=0;entryDy=0;fontFamily=Verdana;" parent="1" source="20" target="79" edge="1">
                    <mxGeometry relative="1" as="geometry"/>
                </mxCell>
                <mxCell id="20" value="数值类型" style="rounded=1;fontFamily=Verdana;fontStyle=1" parent="1" vertex="1">
                    <mxGeometry x="160" y="543.8500000000001" width="80" height="30" as="geometry"/>
                </mxCell>
                <mxCell id="21" value="" style="edgeStyle=elbowEdgeStyle;elbow=horizontal;fontFamily=Verdana;fontStyle=1" parent="1" source="19" target="20" edge="1">
                    <mxGeometry relative="1" as="geometry"/>
                </mxCell>
                <mxCell id="22" value="文本类型（字符串类型）" style="rounded=1;fontFamily=Verdana;fontStyle=1" parent="1" vertex="1">
                    <mxGeometry x="160" y="859" width="150" height="31" as="geometry"/>
                </mxCell>
                <mxCell id="23" value="" style="edgeStyle=elbowEdgeStyle;elbow=horizontal;fontFamily=Verdana;fontStyle=1" parent="1" source="19" target="22" edge="1">
                    <mxGeometry relative="1" as="geometry"/>
                </mxCell>
                <mxCell id="24" value="二进制数据类型" style="rounded=1;fontFamily=Verdana;fontStyle=1" parent="1" vertex="1">
                    <mxGeometry x="160" y="1031.85" width="110" height="31" as="geometry"/>
                </mxCell>
                <mxCell id="25" value="" style="edgeStyle=elbowEdgeStyle;elbow=horizontal;fontFamily=Verdana;fontStyle=1" parent="1" source="19" target="24" edge="1">
                    <mxGeometry relative="1" as="geometry"/>
                </mxCell>
                <mxCell id="84" style="edgeStyle=orthogonalEdgeStyle;html=1;exitX=1;exitY=0.5;exitDx=0;exitDy=0;entryX=0;entryY=0.5;entryDx=0;entryDy=0;" parent="1" source="26" target="83" edge="1">
                    <mxGeometry relative="1" as="geometry"/>
                </mxCell>
                <mxCell id="86" style="edgeStyle=orthogonalEdgeStyle;html=1;exitX=1;exitY=0.5;exitDx=0;exitDy=0;entryX=0;entryY=0.5;entryDx=0;entryDy=0;" parent="1" source="26" target="85" edge="1">
                    <mxGeometry relative="1" as="geometry"/>
                </mxCell>
                <mxCell id="26" value="日期类型" style="rounded=1;fontFamily=Verdana;fontStyle=1" parent="1" vertex="1">
                    <mxGeometry x="160" y="1220.0000000000002" width="80" height="31" as="geometry"/>
                </mxCell>
                <mxCell id="27" value="" style="edgeStyle=elbowEdgeStyle;elbow=horizontal;fontFamily=Verdana;fontStyle=1" parent="1" source="19" target="26" edge="1">
                    <mxGeometry relative="1" as="geometry"/>
                </mxCell>
                <mxCell id="28" value="整形" style="rounded=1;fontFamily=Verdana;fontStyle=1" parent="1" vertex="1">
                    <mxGeometry x="290" y="436.85000000000014" width="80" height="30" as="geometry"/>
                </mxCell>
                <mxCell id="29" value="" style="edgeStyle=elbowEdgeStyle;elbow=horizontal;fontFamily=Verdana;fontStyle=1" parent="1" source="20" target="28" edge="1">
                    <mxGeometry relative="1" as="geometry"/>
                </mxCell>
                <mxCell id="76" style="edgeStyle=orthogonalEdgeStyle;html=1;exitX=1;exitY=0.5;exitDx=0;exitDy=0;entryX=0;entryY=0.5;entryDx=0;entryDy=0;fontFamily=Verdana;" parent="1" source="30" target="71" edge="1">
                    <mxGeometry relative="1" as="geometry"/>
                </mxCell>
                <mxCell id="77" style="edgeStyle=orthogonalEdgeStyle;html=1;exitX=1;exitY=0.5;exitDx=0;exitDy=0;entryX=0;entryY=0.5;entryDx=0;entryDy=0;fontFamily=Verdana;" parent="1" source="30" target="72" edge="1">
                    <mxGeometry relative="1" as="geometry"/>
                </mxCell>
                <mxCell id="78" style="edgeStyle=orthogonalEdgeStyle;html=1;exitX=1;exitY=0.5;exitDx=0;exitDy=0;entryX=0;entryY=0.5;entryDx=0;entryDy=0;fontFamily=Verdana;" parent="1" source="30" target="73" edge="1">
                    <mxGeometry relative="1" as="geometry"/>
                </mxCell>
                <mxCell id="30" value="小数类型" style="rounded=1;fontFamily=Verdana;fontStyle=1" parent="1" vertex="1">
                    <mxGeometry x="290" y="680.0000000000001" width="80" height="30" as="geometry"/>
                </mxCell>
                <mxCell id="31" value="" style="edgeStyle=elbowEdgeStyle;elbow=horizontal;fontFamily=Verdana;fontStyle=1" parent="1" source="20" target="30" edge="1">
                    <mxGeometry relative="1" as="geometry"/>
                </mxCell>
                <mxCell id="32" value="tinyint【1个字节】" style="rounded=1;fontFamily=Verdana;fontStyle=1" parent="1" vertex="1">
                    <mxGeometry x="420" y="380" width="163" height="30" as="geometry"/>
                </mxCell>
                <mxCell id="33" value="" style="edgeStyle=elbowEdgeStyle;elbow=horizontal;fontFamily=Verdana;fontStyle=1" parent="1" source="28" target="32" edge="1">
                    <mxGeometry relative="1" as="geometry"/>
                </mxCell>
                <mxCell id="34" value="smallint【2个字节】" style="rounded=1;fontFamily=Verdana;fontStyle=1" parent="1" vertex="1">
                    <mxGeometry x="420" y="430" width="163" height="30" as="geometry"/>
                </mxCell>
                <mxCell id="35" value="" style="edgeStyle=elbowEdgeStyle;elbow=horizontal;fontFamily=Verdana;fontStyle=1" parent="1" source="28" target="34" edge="1">
                    <mxGeometry relative="1" as="geometry"/>
                </mxCell>
                <mxCell id="36" value="mediumint【3个字节】" style="rounded=1;fontFamily=Verdana;fontStyle=1" parent="1" vertex="1">
                    <mxGeometry x="420" y="480" width="160" height="30" as="geometry"/>
                </mxCell>
                <mxCell id="37" value="" style="edgeStyle=elbowEdgeStyle;elbow=horizontal;fontFamily=Verdana;fontStyle=1" parent="1" source="28" target="36" edge="1">
                    <mxGeometry relative="1" as="geometry"/>
                </mxCell>
                <mxCell id="38" value="int【4个字节】" style="rounded=1;fontStyle=1;fillColor=#a20025;fontColor=#ffffff;strokeColor=#6F0000;fontFamily=Verdana;" parent="1" vertex="1">
                    <mxGeometry x="420" y="530" width="160" height="30" as="geometry"/>
                </mxCell>
                <mxCell id="39" value="" style="edgeStyle=elbowEdgeStyle;elbow=horizontal;fontFamily=Verdana;fontStyle=1" parent="1" source="28" target="38" edge="1">
                    <mxGeometry relative="1" as="geometry"/>
                </mxCell>
                <mxCell id="40" value="bigint【8个字节】" style="rounded=1;fontFamily=Verdana;fontStyle=1" parent="1" vertex="1">
                    <mxGeometry x="420" y="576.85" width="160" height="30" as="geometry"/>
                </mxCell>
                <mxCell id="41" value="" style="edgeStyle=elbowEdgeStyle;elbow=horizontal;fontFamily=Verdana;fontStyle=1" parent="1" source="28" target="40" edge="1">
                    <mxGeometry relative="1" as="geometry"/>
                </mxCell>
                <mxCell id="46" value="date【日期 3个字节】" style="rounded=1;fontFamily=Verdana;fontStyle=1" parent="1" vertex="1">
                    <mxGeometry x="290" y="1120" width="230" height="31" as="geometry"/>
                </mxCell>
                <mxCell id="47" value="" style="edgeStyle=elbowEdgeStyle;elbow=horizontal;fontFamily=Verdana;fontStyle=1" parent="1" source="26" target="46" edge="1">
                    <mxGeometry relative="1" as="geometry"/>
                </mxCell>
                <mxCell id="48" value="time【时间 3个字节】" style="rounded=1;fontFamily=Verdana;fontStyle=1" parent="1" vertex="1">
                    <mxGeometry x="290" y="1169" width="230" height="31" as="geometry"/>
                </mxCell>
                <mxCell id="49" value="" style="edgeStyle=elbowEdgeStyle;elbow=horizontal;fontFamily=Verdana;fontStyle=1" parent="1" source="26" target="48" edge="1">
                    <mxGeometry relative="1" as="geometry"/>
                </mxCell>
                <mxCell id="50" value="datetime【日期时间 8个字节】" style="rounded=1;fontFamily=Verdana;fontStyle=1;fillColor=#a20025;fontColor=#ffffff;strokeColor=#6F0000;" parent="1" vertex="1">
                    <mxGeometry x="290" y="1269" width="230" height="31" as="geometry"/>
                </mxCell>
                <mxCell id="51" value="" style="edgeStyle=elbowEdgeStyle;elbow=horizontal;fontFamily=Verdana;fontStyle=1" parent="1" source="26" target="50" edge="1">
                    <mxGeometry relative="1" as="geometry"/>
                </mxCell>
                <mxCell id="52" value="char(size)【0~255】" style="rounded=1;fontFamily=Verdana;fontStyle=1;fillColor=#a20025;fontColor=#ffffff;strokeColor=#6F0000;" parent="1" vertex="1">
                    <mxGeometry x="360" y="790" width="210" height="31" as="geometry"/>
                </mxCell>
                <mxCell id="53" value="" style="edgeStyle=elbowEdgeStyle;elbow=horizontal;exitX=1;exitY=0.505;exitDx=0;exitDy=0;exitPerimeter=0;fontFamily=Verdana;fontStyle=1" parent="1" source="22" target="52" edge="1">
                    <mxGeometry relative="1" as="geometry"/>
                </mxCell>
                <mxCell id="54" value="varchar(size)【0~2^16-1】" style="rounded=1;fontFamily=Verdana;fontStyle=1;fillColor=#a20025;fontColor=#ffffff;strokeColor=#6F0000;" parent="1" vertex="1">
                    <mxGeometry x="360" y="833.85" width="210" height="31" as="geometry"/>
                </mxCell>
                <mxCell id="55" value="" style="edgeStyle=elbowEdgeStyle;elbow=horizontal;fontFamily=Verdana;fontStyle=1" parent="1" source="22" target="54" edge="1">
                    <mxGeometry relative="1" as="geometry"/>
                </mxCell>
                <mxCell id="56" value="text【0~2^16-1】" style="rounded=1;fontFamily=Verdana;fontStyle=1;fillColor=#a20025;fontColor=#ffffff;strokeColor=#6F0000;" parent="1" vertex="1">
                    <mxGeometry x="360" y="880" width="210" height="31" as="geometry"/>
                </mxCell>
                <mxCell id="57" value="" style="edgeStyle=elbowEdgeStyle;elbow=horizontal;fontFamily=Verdana;fontStyle=1" parent="1" source="22" target="56" edge="1">
                    <mxGeometry relative="1" as="geometry"/>
                </mxCell>
                <mxCell id="58" value="longtext【0~2^32-1】" style="rounded=1;fontFamily=Verdana;fontStyle=1" parent="1" vertex="1">
                    <mxGeometry x="360" y="930" width="210" height="31" as="geometry"/>
                </mxCell>
                <mxCell id="59" value="" style="edgeStyle=elbowEdgeStyle;elbow=horizontal;fontFamily=Verdana;fontStyle=1" parent="1" source="22" target="58" edge="1">
                    <mxGeometry relative="1" as="geometry"/>
                </mxCell>
                <mxCell id="60" value="blob【0~2^16-1】" style="rounded=1;fontFamily=Verdana;fontStyle=1" parent="1" vertex="1">
                    <mxGeometry x="334" y="1000.85" width="186" height="31" as="geometry"/>
                </mxCell>
                <mxCell id="61" value="" style="edgeStyle=elbowEdgeStyle;elbow=horizontal;fontFamily=Verdana;fontStyle=1" parent="1" source="24" target="60" edge="1">
                    <mxGeometry relative="1" as="geometry"/>
                </mxCell>
                <mxCell id="62" value="longblob【0~2^32-1】" style="rounded=1;fontFamily=Verdana;fontStyle=1" parent="1" vertex="1">
                    <mxGeometry x="334" y="1060" width="186" height="31" as="geometry"/>
                </mxCell>
                <mxCell id="63" value="" style="edgeStyle=elbowEdgeStyle;elbow=horizontal;fontFamily=Verdana;fontStyle=1" parent="1" source="24" target="62" edge="1">
                    <mxGeometry relative="1" as="geometry"/>
                </mxCell>
                <mxCell id="71" value="float【单精度 4个字节】" style="rounded=1;fontFamily=Verdana;fontStyle=1" parent="1" vertex="1">
                    <mxGeometry x="400" y="630" width="200" height="30" as="geometry"/>
                </mxCell>
                <mxCell id="72" value="double【双精度 8个字节】" style="rounded=1;fontFamily=Verdana;fontStyle=1;fillColor=#a20025;fontColor=#ffffff;strokeColor=#6F0000;" parent="1" vertex="1">
                    <mxGeometry x="400" y="680" width="200" height="30" as="geometry"/>
                </mxCell>
                <mxCell id="73" value="decimal(M, D)【大小不确定】" style="rounded=1;fontFamily=Verdana;fontStyle=1;fillColor=#a20025;fontColor=#ffffff;strokeColor=#6F0000;" parent="1" vertex="1">
                    <mxGeometry x="400" y="730" width="200" height="30" as="geometry"/>
                </mxCell>
                <mxCell id="82" style="edgeStyle=orthogonalEdgeStyle;html=1;exitX=1;exitY=0.5;exitDx=0;exitDy=0;entryX=0;entryY=0.5;entryDx=0;entryDy=0;fontFamily=Verdana;" parent="1" source="79" target="81" edge="1">
                    <mxGeometry relative="1" as="geometry"/>
                </mxCell>
                <mxCell id="79" value="位类型" style="rounded=1;fontFamily=Verdana;fontStyle=1" parent="1" vertex="1">
                    <mxGeometry x="290" y="320.0000000000001" width="80" height="30" as="geometry"/>
                </mxCell>
                <mxCell id="81" value="bit(M)【1-64】" style="rounded=1;fontFamily=Verdana;fontStyle=1" parent="1" vertex="1">
                    <mxGeometry x="420" y="320" width="120" height="30" as="geometry"/>
                </mxCell>
                <mxCell id="83" value="timestamp【时间戳 4个字节】" style="rounded=1;fontFamily=Verdana;fontStyle=1;fillColor=#a20025;fontColor=#ffffff;strokeColor=#6F0000;" parent="1" vertex="1">
                    <mxGeometry x="290" y="1320" width="230" height="31" as="geometry"/>
                </mxCell>
                <mxCell id="85" value="year【年份 1个字节】" style="rounded=1;fontFamily=Verdana;fontStyle=1" parent="1" vertex="1">
                    <mxGeometry x="290" y="1220" width="230" height="31" as="geometry"/>
                </mxCell>
            </root>
        </mxGraphModel>
    </diagram>
</mxfile>